<?xml version="1.0" encoding="UTF-8"?>
<svg id="Layer_1" xmlns="http://www.w3.org/2000/svg" version="1.1" viewBox="0 0 454 100">
  <defs>
    <style>
      .st0 {
        fill: #fff;
      }

      .st1, .st2 {
        isolation: isolate;
      }

      .st2 {
        fill: #fa0;
        opacity: .85;
      }

      .st3 {
        fill: #ff6b35;
      }
    </style>
  </defs>
  <g class="st1">
    <path class="st0" d="M3.17,66.07V30.74c0-10.75,5.66-16.89,16.03-16.89s16.03,6.14,16.03,16.89v35.33c0,10.75-5.66,16.89-16.03,16.89s-16.03-6.14-16.03-16.89ZM24.67,66.74V30.07c0-4.8-2.11-6.62-5.47-6.62s-5.47,1.82-5.47,6.62v36.67c0,4.8,2.11,6.62,5.47,6.62s5.47-1.82,5.47-6.62Z"/>
    <path class="st0" d="M44.35,14.8h10.66l6.91,52.12h.19l6.91-52.12h9.7l-10.18,67.2h-14.02L44.35,14.8Z"/>
    <path class="st0" d="M88.8,14.8h28.8v9.6h-18.24v17.76h14.49v9.6h-14.49v20.64h18.24v9.6h-28.8V14.8Z"/>
    <path class="st0" d="M128.64,14.8h15.65c10.94,0,15.65,5.09,15.65,15.46v4.13c0,6.91-2.21,11.33-6.91,13.25v.19c5.28,1.63,7.01,6.62,7.01,14.21v11.81c0,3.26.1,5.66,1.15,8.16h-10.75c-.58-1.73-.96-2.78-.96-8.26v-12.29c0-6.24-1.82-8.25-6.62-8.25h-3.65v28.8h-10.56V14.8ZM143.04,43.6c3.94,0,6.34-1.73,6.34-7.1v-5.18c0-4.8-1.63-6.91-5.38-6.91h-4.8v19.2h3.84Z"/>
    <path class="st0" d="M172.32,14.8h10.56v27.36h11.33V14.8h10.56v67.2h-10.56v-30.24h-11.33v30.24h-10.56V14.8Z"/>
    <path class="st0" d="M227.32,53.39l-12.77-38.59h11.23l7.2,24.67h.19l7.2-24.67h10.27l-12.77,38.59v28.61h-10.56v-28.61Z"/>
    <path class="st0" d="M260.45,14.8h15.55c10.56,0,15.74,5.86,15.74,16.61v6.62c0,10.75-5.18,16.61-15.74,16.61h-4.99v27.36h-10.56V14.8ZM276,45.04c3.36,0,5.18-1.54,5.18-6.34v-7.97c0-4.8-1.82-6.33-5.18-6.33h-4.99v20.64h4.99Z"/>
    <path class="st0" d="M302.49,14.8h28.8v9.6h-18.24v17.76h14.49v9.6h-14.49v20.64h18.24v9.6h-28.8V14.8Z"/>
  </g>
  <g>
    <path class="st3" d="M345.6,47c1.65,7.7,3.3,13.2,4.4,18.7,2.2,6.6,1.1,9.9-1.1,12.1-1.65,1.65-3.3,2.2-3.3,2.2,0,0-1.65-.55-3.3-2.2-2.2-2.2-3.3-5.5-1.1-12.1,1.1-5.5,2.75-11,4.4-18.7Z"/>
    <path class="st2" d="M345.6,54.7c.55,4.4,1.65,8.8,2.2,12.1,1.1,4.4,0,7.7-1.1,9.35-.55,1.1-1.1,1.1-1.1,1.1,0,0-.55,0-1.1-1.1-1.1-1.65-2.2-4.95-1.1-9.35.55-3.3,1.65-7.7,2.2-12.1Z"/>
  </g>
  <g class="st1">
    <path class="st0" d="M361.94,14.8h15.07l6.72,48.09h.19l6.72-48.09h15.07v67.2h-9.98V31.12h-.19l-7.68,50.88h-8.83l-7.68-50.88h-.19v50.88h-9.21V14.8Z"/>
    <path class="st0" d="M418.58,14.8h28.8v9.6h-18.24v17.76h14.49v9.6h-14.49v20.64h18.24v9.6h-28.8V14.8Z"/>
  </g>
</svg>
